<?xml version="1.0" encoding="UTF-8"?>
<svg width="48px" height="48px" viewBox="0 0 48 48" version="1.1" xmlns="http://www.w3.org/2000/svg" xmlns:xlink="http://www.w3.org/1999/xlink">
    <title>_various/google+</title>
    <g id="_various/google+" stroke="none" stroke-width="1" fill="none" fill-rule="evenodd">
        <g id="001-google-plus" transform="translate(8.000000, 12.000000)" fill="#000000" fill-rule="nonzero">
            <path d="M24.5510894,10.9240325 L13.0939187,10.9240325 L13.0939187,14.7430894 L20.0839024,14.7430894 C19.0411707,18.0632846 15.9399024,20.4716748 12.2754472,20.4716748 C7.75564228,20.4716748 4.0918374,16.8076098 4.0918374,12.288 C4.0918374,7.76819512 7.75577236,4.10439024 12.2754472,4.10439024 C14.5514797,4.10439024 16.6100813,5.0337561 18.0934634,6.53339837 L20.865626,3.52019512 C18.6516423,1.35076423 15.6200976,0.0126178862 12.2754472,0.0126178862 C5.49593496,0.0126178862 0,5.5084878 0,12.288 C0,19.0675122 5.49593496,24.5635772 12.2755122,24.5635772 C18.2141789,24.5635772 23.4135935,20.3460813 24.5510894,14.7431545 L24.5510894,10.9240976 L24.5510894,10.9240325 L24.5510894,10.9240325 Z" id="Shape"></path>
            <polygon id="Shape" points="31.9907642 10.9175285 29.6472846 10.9175285 29.6472846 8.57404878 27.638439 8.57404878 27.638439 10.9175285 25.2949593 10.9175285 25.2949593 12.9261789 27.638439 12.9261789 27.638439 15.2697236 29.6472846 15.2697236 29.6472846 12.9261789 31.9907642 12.9261789"></polygon>
        </g>
    </g>
</svg>