<?xml version="1.0" encoding="UTF-8"?>
<svg width="48px" height="48px" viewBox="0 0 48 48" version="1.1" xmlns="http://www.w3.org/2000/svg" xmlns:xlink="http://www.w3.org/1999/xlink">
    <title>_various/facebook</title>
    <g id="_various/facebook" stroke="none" stroke-width="1" fill="none" fill-rule="evenodd">
        <g id="004-facebook-logo" transform="translate(15.000000, 8.000000)" fill="#000000" fill-rule="nonzero">
            <path d="M16.5242062,0.00659793814 L12.4120412,0 C7.79216495,0 4.80659794,3.06309278 4.80659794,7.80404124 L4.80659794,11.4022268 L0.672,11.4022268 C0.314721649,11.4022268 0.0254020619,11.6918763 0.0254020619,12.0491546 L0.0254020619,17.2625155 C0.0254020619,17.6197938 0.315051546,17.9091134 0.672,17.9091134 L4.80659794,17.9091134 L4.80659794,31.0640825 C4.80659794,31.4213608 5.09591753,31.7106804 5.45319588,31.7106804 L10.8476701,31.7106804 C11.2049485,31.7106804 11.494268,31.4210309 11.494268,31.0640825 L11.494268,17.9091134 L16.3285773,17.9091134 C16.6858557,17.9091134 16.9751753,17.6197938 16.9751753,17.2625155 L16.9771546,12.0491546 C16.9771546,11.8776082 16.908866,11.7133196 16.7877938,11.5919175 C16.6667216,11.4705155 16.5017732,11.4022268 16.3302268,11.4022268 L11.494268,11.4022268 L11.494268,8.352 C11.494268,6.88593814 11.8436289,6.14169072 13.7534021,6.14169072 L16.5235464,6.14070103 C16.8804948,6.14070103 17.1698144,5.85105155 17.1698144,5.49410309 L17.1698144,0.653195876 C17.1698144,0.29657732 16.8808247,0.00725773196 16.5242062,0.00659793814 Z" id="Shape"></path>
        </g>
    </g>
</svg>