<?xml version="1.0" encoding="UTF-8"?>
<svg width="48px" height="48px" viewBox="0 0 48 48" version="1.1" xmlns="http://www.w3.org/2000/svg" xmlns:xlink="http://www.w3.org/1999/xlink">
    <title>_various/twitter</title>
    <g id="_various/twitter" stroke="none" stroke-width="1" fill="none" fill-rule="evenodd">
        <g id="003-twitter-logo-silhouette" transform="translate(8.000000, 11.000000)" fill="#000000" fill-rule="nonzero">
            <path d="M32,3.09845752 C30.8222222,3.62033987 29.5584837,3.97427451 28.2306928,4.13228758 C29.5864575,3.3204183 30.6242614,2.03267974 31.1161307,0.502954248 C29.8443922,1.25479739 28.4406275,1.80073203 26.9448889,2.09667974 C25.7471373,0.818928105 24.043451,0.0230588235 22.1537778,0.0230588235 C18.5284706,0.0230588235 15.5890196,2.9625098 15.5890196,6.58583007 C15.5890196,7.09971242 15.6470065,7.60162092 15.7590065,8.08156863 C10.3040523,7.8075817 5.46698039,5.1940915 2.22959477,1.22279739 C1.66368627,2.19064052 1.34175163,3.31837908 1.34175163,4.52219608 C1.34175163,6.79979085 2.50154248,8.80941176 4.26122876,9.98515033 C3.18541176,9.94917647 2.17359477,9.65322876 1.28779085,9.16130719 L1.28779085,9.24329412 C1.28779085,12.4226928 3.55137255,15.076183 6.55278431,15.6801046 C6.00287582,15.8280784 5.42300654,15.9100654 4.82311111,15.9100654 C4.39921569,15.9100654 3.98928105,15.8680784 3.58734641,15.7880784 C4.4231634,18.3975948 6.8467451,20.2952157 9.71822222,20.3472418 C7.47262745,22.1069281 4.64115033,23.152732 1.56575163,23.152732 C1.03586928,23.152732 0.513934641,23.120732 5.22875817e-05,23.0627451 C2.90551634,24.9284183 6.35487582,26.0162092 10.0621699,26.0162092 C22.1378824,26.0162092 28.7386667,16.0140654 28.7386667,7.33971242 L28.7166536,6.48988235 C30.0063791,5.56998693 31.1221438,4.41422222 32,3.09845752 Z" id="Shape"></path>
        </g>
    </g>
</svg>