<?xml version="1.0" encoding="UTF-8"?>
<svg width="60px" height="20px" viewBox="0 0 60 20" version="1.1" xmlns="http://www.w3.org/2000/svg" xmlns:xlink="http://www.w3.org/1999/xlink">
    <title>APPS</title>
    <g id="Symbols" stroke="none" stroke-width="1" fill="none" fill-rule="evenodd">
        <g id="Desktop/Navigation" transform="translate(-47.000000, -46.000000)" fill="#000000">
            <path d="M58.8237305,58.1049805 L54.0512695,58.1049805 C53.4008757,58.1049805 52.9965828,58.1577143 52.8383789,58.2631836 C52.680175,58.3686529 52.4692396,58.7202119 52.2055664,59.3178711 L51.3486328,61.2558594 C50.9619121,62.1435591 50.7685547,62.8027322 50.7685547,63.2333984 C50.7685547,63.6464864 50.8718251,63.9453116 51.0783691,64.1298828 C51.2849131,64.314454 51.6914032,64.4726556 52.2978516,64.6044922 C52.5615248,64.6572268 52.6977539,64.7626945 52.706543,64.9208984 C52.7153321,65.0703132 52.5922864,65.1450195 52.3374023,65.1450195 C52.2407222,65.1450195 52.0913096,65.140625 51.8891602,65.1318359 L50.6235352,65.065918 C50.201658,65.0483398 49.71387,65.0395508 49.1601562,65.0395508 C48.9052722,65.0395508 48.7075202,65.0439453 48.5668945,65.0527344 C48.1186501,65.0878908 47.8725588,65.1054688 47.8286133,65.1054688 C47.5913074,65.1054688 47.4726562,65.026368 47.4726562,64.8681641 C47.4726562,64.7275384 47.5473625,64.6352541 47.6967773,64.5913086 L48.1845703,64.4462891 C48.3603524,64.3935544 48.5976548,64.1804218 48.8964844,63.8068848 C49.195314,63.4333477 49.4414053,63.0444356 49.6347656,62.6401367 L50.0170898,61.7700195 L56.793457,46.7275391 C56.9077154,46.4638659 57.0351555,46.3320312 57.1757812,46.3320312 C57.316407,46.3320312 57.4350581,46.4594714 57.5317383,46.7143555 L63.2006836,61.2163086 L63.4907227,61.9282227 C63.9038107,62.9917045 64.2465807,63.6530749 64.519043,63.9123535 C64.7915053,64.1716322 65.3452107,64.3759758 66.1801758,64.5253906 C66.4526381,64.5781253 66.5844727,64.6879874 66.5756836,64.8549805 C66.5668945,65.0043953 66.4438488,65.0791016 66.206543,65.0791016 C66.127441,65.0791016 65.9604505,65.0703126 65.7055664,65.0527344 C65.2485329,65.0087888 64.4355527,64.9868164 63.2666016,64.9868164 C62.0449158,64.9868164 61.280275,65.0131833 60.9726562,65.065918 C60.788085,65.1010744 60.6518559,65.1186523 60.5639648,65.1186523 C60.3354481,65.1186523 60.2211914,65.0263681 60.2211914,64.8417969 C60.2211914,64.7011712 60.3310536,64.6088869 60.5507812,64.5649414 L60.9594727,64.4726562 C61.398928,64.3847652 61.6186523,64.08594 61.6186523,63.5761719 C61.6186523,63.1103492 61.3505886,62.1831124 60.8144531,60.7944336 L60.1552734,59.0541992 C59.9707022,58.5707984 59.8256841,58.2917484 59.7202148,58.217041 C59.6147456,58.1423336 59.3159204,58.1049805 58.8237305,58.1049805 Z M58.9819336,55.9956055 L56.9121094,50.7749023 L56.8066406,50.4980469 C56.7011713,50.2167955 56.5869147,50.0717774 56.4638672,50.0629883 C56.4023434,50.0541992 56.3320316,50.1376944 56.2529297,50.3134766 L53.6821289,56.0219727 C53.5678705,56.2680676 53.5107422,56.4306637 53.5107422,56.5097656 C53.5107422,56.7382824 53.7128886,56.8525391 54.1171875,56.8525391 L54.4731445,56.8657227 L58.4545898,56.8657227 C58.8940452,56.8657227 59.1137695,56.7558605 59.1137695,56.5361328 C59.1137695,56.4746091 59.0917971,56.3735359 59.0478516,56.2329102 L58.9819336,55.9956055 Z M71.4167969,49.1005859 L71.4167969,60.0957031 L71.4036133,61.3745117 L71.4431641,62.4819336 C71.5398442,63.5454155 71.9353481,64.1650382 72.6296875,64.3408203 C73.1130884,64.4726569 73.4778308,64.5385742 73.7239258,64.5385742 C73.987599,64.5385742 74.1238281,64.617675 74.1326172,64.7758789 C74.1501954,65.0043957 73.9963883,65.1186523 73.6711914,65.1186523 C73.5217766,65.1186523 73.2273459,65.1010744 72.7878906,65.065918 C72.5066392,65.0483398 72.0496125,65.0395508 71.4167969,65.0395508 L70.4807617,65.0131836 L69.4524414,65.0263672 C68.9338841,65.0263672 68.5427748,65.0439451 68.2791016,65.0791016 C67.9363264,65.1230471 67.6858406,65.1450195 67.5276367,65.1450195 C67.29912,65.1450195 67.1848633,65.0571298 67.1848633,64.8813477 C67.1848633,64.7143546 67.3298814,64.6088869 67.6199219,64.5649414 C68.3054722,64.4594721 68.7734851,64.0727572 69.0239746,63.4047852 C69.2744641,62.7368131 69.399707,61.5327235 69.399707,59.7924805 L69.399707,51.7900391 C69.399707,49.9443267 69.2898448,48.7775903 69.0701172,48.2897949 C68.8503895,47.8019995 68.3010786,47.5097661 67.422168,47.4130859 C67.1848621,47.3955077 67.0706054,47.307618 67.0793945,47.1494141 C67.0881836,46.9472646 67.2595686,46.8461914 67.5935547,46.8461914 C67.7605477,46.8461914 67.9846666,46.8681638 68.265918,46.9121094 C68.8196317,46.9912113 69.2766584,47.0307617 69.6370117,47.0307617 C70.1995145,47.0307617 71.0168892,46.9824224 72.0891602,46.8857422 C72.6428739,46.8417967 73.0955061,46.8198242 73.4470703,46.8198242 C75.2839936,46.8198242 76.775922,47.2614702 77.9229004,48.1447754 C79.0698788,49.0280806 79.6433594,50.1816335 79.6433594,51.6054688 C79.6433594,53.3281336 78.9402414,54.6860302 77.5339844,55.6791992 C76.4792916,56.4174842 75.3630918,56.7866211 74.1853516,56.7866211 C73.6316379,56.7866211 73.1240746,56.7250983 72.6626465,56.6020508 C72.2012184,56.4790033 71.9792968,56.3471687 71.996875,56.206543 C72.0144532,56.1010737 72.0979485,56.0483398 72.2473633,56.0483398 C72.3176761,56.0483398 72.4055659,56.0615233 72.5110352,56.0878906 C72.7131846,56.1494144 73.0383767,56.1801758 73.4866211,56.1801758 C74.7522524,56.1801758 75.7651817,55.8330113 76.5254395,55.1386719 C77.2856972,54.4443325 77.6658203,53.5214901 77.6658203,52.3701172 C77.6658203,51.0429621 77.1648488,49.9443403 76.1628906,49.0742188 C75.1609325,48.2040972 73.8909257,47.769043 72.352832,47.769043 C72.0012678,47.769043 71.759571,47.8349603 71.6277344,47.9667969 C71.4958978,48.0986335 71.4299805,48.3491192 71.4299805,48.7182617 L71.4167969,49.1005859 Z M85.6578125,49.1005859 L85.6578125,60.0957031 L85.6446289,61.3745117 L85.6841797,62.4819336 C85.7808599,63.5454155 86.1763637,64.1650382 86.8707031,64.3408203 C87.354104,64.4726569 87.7188464,64.5385742 87.9649414,64.5385742 C88.2286146,64.5385742 88.3648437,64.617675 88.3736328,64.7758789 C88.391211,65.0043957 88.237404,65.1186523 87.912207,65.1186523 C87.7627922,65.1186523 87.4683616,65.1010744 87.0289063,65.065918 C86.7476548,65.0483398 86.2906282,65.0395508 85.6578125,65.0395508 L84.7217773,65.0131836 L83.693457,65.0263672 C83.1748998,65.0263672 82.7837904,65.0439451 82.5201172,65.0791016 C82.177342,65.1230471 81.9268563,65.1450195 81.7686523,65.1450195 C81.5401356,65.1450195 81.4258789,65.0571298 81.4258789,64.8813477 C81.4258789,64.7143546 81.570897,64.6088869 81.8609375,64.5649414 C82.5464878,64.4594721 83.0145007,64.0727572 83.2649902,63.4047852 C83.5154798,62.7368131 83.6407227,61.5327235 83.6407227,59.7924805 L83.6407227,51.7900391 C83.6407227,49.9443267 83.5308605,48.7775903 83.3111328,48.2897949 C83.0914052,47.8019995 82.5420942,47.5097661 81.6631836,47.4130859 C81.4258777,47.3955077 81.311621,47.307618 81.3204102,47.1494141 C81.3291993,46.9472646 81.5005843,46.8461914 81.8345703,46.8461914 C82.0015633,46.8461914 82.2256822,46.8681638 82.5069336,46.9121094 C83.0606473,46.9912113 83.517674,47.0307617 83.8780273,47.0307617 C84.4405302,47.0307617 85.2579048,46.9824224 86.3301758,46.8857422 C86.8838895,46.8417967 87.3365217,46.8198242 87.6880859,46.8198242 C89.5250092,46.8198242 91.0169376,47.2614702 92.163916,48.1447754 C93.3108944,49.0280806 93.884375,50.1816335 93.884375,51.6054688 C93.884375,53.3281336 93.181257,54.6860302 91.775,55.6791992 C90.7203072,56.4174842 89.6041075,56.7866211 88.4263672,56.7866211 C87.8726535,56.7866211 87.3650902,56.7250983 86.9036621,56.6020508 C86.442234,56.4790033 86.2203124,56.3471687 86.2378906,56.206543 C86.2554688,56.1010737 86.3389641,56.0483398 86.4883789,56.0483398 C86.5586918,56.0483398 86.6465815,56.0615233 86.7520508,56.0878906 C86.9542002,56.1494144 87.2793923,56.1801758 87.7276367,56.1801758 C88.993268,56.1801758 90.0061974,55.8330113 90.7664551,55.1386719 C91.5267128,54.4443325 91.9068359,53.5214901 91.9068359,52.3701172 C91.9068359,51.0429621 91.4058644,49.9443403 90.4039063,49.0742188 C89.4019481,48.2040972 88.1319413,47.769043 86.5938477,47.769043 C86.2422834,47.769043 86.0005866,47.8349603 85.86875,47.9667969 C85.7369134,48.0986335 85.6709961,48.3491192 85.6709961,48.7182617 L85.6578125,49.1005859 Z M101.33584,46.6484375 C102.276274,46.6484375 103.071676,46.7846666 103.72207,47.0571289 L104.631738,47.4394531 C104.71084,47.4746096 104.789941,47.4921875 104.869043,47.4921875 C104.974512,47.4921875 105.07998,47.4482426 105.185449,47.3603516 L105.37002,47.2021484 C105.396387,47.166992 105.444726,47.1494141 105.515039,47.1494141 C105.734767,47.140625 105.844629,47.3559548 105.844629,47.7954102 C105.844629,47.944825 105.901757,48.3886682 106.016016,49.1269531 L106.226953,50.4848633 C106.270899,50.7749038 106.292871,50.9550778 106.292871,51.0253906 C106.292871,51.2978529 106.200587,51.434082 106.016016,51.434082 C105.87539,51.434082 105.734766,51.2231466 105.594141,50.8012695 C105.277733,49.852046 104.63394,49.0698273 103.662744,48.4545898 C102.691548,47.8393524 101.608307,47.5317383 100.412988,47.5317383 C99.4637648,47.5317383 98.6705598,47.8107882 98.0333496,48.3688965 C97.3961394,48.9270047 97.0775391,49.623531 97.0775391,50.4584961 C97.0775391,51.196781 97.28408,51.8339817 97.697168,52.3701172 C98.0575213,52.8271507 98.4508279,53.1611318 98.8770996,53.3720703 C99.3033713,53.5830089 100.351456,53.9653293 102.021387,54.519043 C105.273356,55.5825248 106.899316,57.3271363 106.899316,59.7529297 C106.899316,61.3964926 106.301666,62.7412057 105.106348,63.7871094 C103.911029,64.833013 102.377353,65.355957 100.505273,65.355957 C99.8285122,65.355957 99.0836466,65.2592783 98.2706543,65.065918 C97.457662,64.8725576 96.8622089,64.6484375 96.4842773,64.3935547 C96.3260734,64.2880854 96.2206057,64.176026 96.1678711,64.057373 C96.1151365,63.9387201 96.0360357,63.6333032 95.9305664,63.1411133 C95.9129882,63.0708004 95.803126,62.6709021 95.6009766,61.9414062 C95.3724598,61.1503867 95.2582031,60.5878923 95.2582031,60.2539062 C95.2582031,59.9902331 95.3460929,59.8627929 95.521875,59.871582 C95.6800789,59.8803711 95.8207025,60.095701 95.94375,60.5175781 C96.2601578,61.6074273 96.9281199,62.5214807 97.9476562,63.2597656 C98.9671926,63.9980506 100.074603,64.3671875 101.269922,64.3671875 C102.482819,64.3671875 103.508931,64.011234 104.348291,63.2993164 C105.187651,62.5873988 105.607324,61.7216848 105.607324,60.7021484 C105.607324,59.7265576 105.220609,58.9047885 104.447168,58.2368164 C104.051658,57.8940413 102.909091,57.4062532 101.019434,56.7734375 C99.068252,56.1142545 97.6861857,55.3847696 96.8731934,54.5849609 C96.060201,53.7851523 95.6537109,52.7480532 95.6537109,51.4736328 C95.6537109,50.0497976 96.1832467,48.8896529 97.242334,47.9931641 C98.3014213,47.0966752 99.6659096,46.6484375 101.33584,46.6484375 Z" id="APPS"></path>
        </g>
    </g>
</svg>