<?xml version="1.0" encoding="UTF-8"?>
<svg width="20px" height="17px" viewBox="0 0 20 17" version="1.1" xmlns="http://www.w3.org/2000/svg" xmlns:xlink="http://www.w3.org/1999/xlink">
    <title>Group</title>
    <g id="Symbols" stroke="none" stroke-width="1" fill="none" fill-rule="evenodd">
        <g id="Desktop/Navigation" transform="translate(-1299.000000, -49.000000)" fill="#000000" fill-rule="nonzero">
            <g id="Group" transform="translate(1299.000000, 49.179500)">
                <path d="M18.7468417,3.28083994 L15.4719963,3.28083994 C15.4559517,3.25600386 15.4399072,3.23072821 15.41617,3.21094727 L11.6720766,0.0697331087 C11.5452588,-0.0362048443 11.3562409,-0.0195009347 11.2500831,0.10665754 C11.1434858,0.23347538 11.1601897,0.422493305 11.2870075,0.528651046 L14.5673477,3.28062015 L5.2133781,3.28062015 L8.49349845,0.528651046 C8.62031629,0.422493305 8.63680041,0.233255592 8.5302031,0.10665754 C8.42470472,-0.0195009347 8.23546701,-0.0362048443 8.10820959,0.0697331087 L4.36455575,3.21072748 C4.34059882,3.23072821 4.32477407,3.25578408 4.30872952,3.28062015 L1.03388409,3.28062015 C0.463533491,3.28083994 0,3.74459322 0,4.31494382 L0,6.23193723 C0,6.80206804 0.463533491,7.26582132 1.03388409,7.26582132 L1.62071881,7.26582132 L2.42272626,15.3098527 C2.48228888,15.8999843 2.97417506,16.3450555 3.56694406,16.3450555 L16.2137817,16.3450555 C16.8067705,16.3450555 17.2988765,15.8999843 17.3579995,15.3096329 L18.160007,7.26604111 L18.7470615,7.26604111 C19.3171923,7.26604111 19.7811654,6.80250762 19.7811654,6.23215702 L19.7811654,4.3151636 C19.7809456,3.74459322 19.3169725,3.28083994 18.7468417,3.28083994 Z M16.7612743,15.2496307 C16.7329216,15.5322785 16.4975284,15.7454731 16.2135619,15.7454731 L3.56672427,15.7454731 C3.2829776,15.7454731 3.04736456,15.5320587 3.01901187,15.2496307 L2.22293871,7.26560153 L17.5573475,7.26560153 L16.7612743,15.2496307 Z M19.1815829,6.23193723 C19.1815829,6.47128667 18.9866307,6.66645867 18.7468417,6.66645867 L17.8883487,6.66645867 L1.89193755,6.66645867 L1.03388409,6.66645867 C0.794534647,6.66645867 0.599362651,6.47150646 0.599362651,6.23193723 L0.599362651,4.31494382 C0.599362651,4.0751548 0.794314859,3.88020259 1.03388409,3.88020259 L18.7470615,3.88020259 C18.9866307,3.88020259 19.1818027,4.0751548 19.1818027,4.31494382 L19.1818027,6.23193723 L19.1815829,6.23193723 Z" id="Shape"></path>
                <path d="M5.54747253,13.8952251 C5.71296703,13.8952251 5.84703297,13.7611591 5.84703297,13.5954448 L5.84703297,9.24973055 C5.84703297,9.08401626 5.71296703,8.94995033 5.54747253,8.94995033 C5.38175824,8.94995033 5.24769231,9.08401626 5.24769231,9.24973055 L5.24769231,13.5952251 C5.24769231,13.7611591 5.38175824,13.8952251 5.54747253,13.8952251 Z" id="Shape"></path>
                <path d="M8.44263736,13.8952251 C8.60835165,13.8952251 8.74241758,13.7611591 8.74241758,13.5954448 L8.74241758,9.24973055 C8.74241758,9.08401626 8.60835165,8.94995033 8.44263736,8.94995033 C8.27692308,8.94995033 8.14285714,9.08401626 8.14285714,9.24973055 L8.14285714,13.5952251 C8.14285714,13.7611591 8.27692308,13.8952251 8.44263736,13.8952251 Z" id="Shape"></path>
                <path d="M11.3373626,13.8952251 C11.5030769,13.8952251 11.6371429,13.7611591 11.6371429,13.5954448 L11.6371429,9.24973055 C11.6371429,9.08401626 11.5030769,8.94995033 11.3373626,8.94995033 C11.1718681,8.94995033 11.0378022,9.08401626 11.0378022,9.24973055 L11.0378022,13.5952251 C11.0378022,13.7611591 11.1718681,13.8952251 11.3373626,13.8952251 Z" id="Shape"></path>
                <path d="M14.2323077,13.8952251 C14.3978022,13.8952251 14.5320879,13.7611591 14.5320879,13.5954448 L14.5320879,9.24973055 C14.5320879,9.08401626 14.398022,8.94995033 14.2323077,8.94995033 C14.0665934,8.94995033 13.9325275,9.08401626 13.9325275,9.24973055 L13.9325275,13.5952251 C13.9325275,13.7611591 14.0665934,13.8952251 14.2323077,13.8952251 Z" id="Shape"></path>
            </g>
        </g>
    </g>
</svg>